<?xml version="1.0" encoding="utf-8"?>
<!-- Generator: Adobe Illustrator 22.0.0, SVG Export Plug-In . SVG Version: 6.00 Build 0)  -->
<svg version="1.1" id="Layer_1" xmlns="http://www.w3.org/2000/svg" xmlns:xlink="http://www.w3.org/1999/xlink" x="0px" y="0px"
	 viewBox="0 0 446.4 446.4" style="enable-background:new 0 0 446.4 446.4;" xml:space="preserve">
<style type="text/css">
	.st0{fill:none;}
	.st1{fill:#F5F5F5;}
	.st2{fill:#709B30;}
	.st3{fill:#98C455;}
</style>
<g id="Layer_x0020_1">
	<rect x="-46.8" y="-46.8" class="st0" width="540" height="540"/>
	<g id="_2228384741328">
		<circle class="st1" cx="223.2" cy="223.2" r="223.2"/>
		<g>
			<path class="st2" d="M147.2,142.8c28.1-18.1,59.1-31.5,91.5-40c25.2-6.6,82.2-14.8,107-8.8c-10.7,13.4-22.3,27.6-33.5,40.5
				c-25.8,27.6-52.7,54.4-83.1,76.8c-43.5,32.9-93.7,59.8-148.6,66.1c-1-20.9,0.6-42.1,7.6-62c6-18,16-34.6,29.3-48.1
				C126.1,158,136.1,149.5,147.2,142.8z"/>
			<path class="st3" d="M346.1,95c26.1,129.4-63.6,303.1-222,249.3c-13.1-4.5-24.2-14-33.4-24.5c56.7-8.6,104-37.9,145.8-75.6
				C283.5,201.9,313.8,148.8,346.1,95z"/>
		</g>
	</g>
</g>
</svg>
